HIERARCHY
ROOT Hips
{
	OFFSET -3.958830 18.904000 13.208200
	CHANNELS 6 Xposition Yposition Zposition Zrotation Yrotation Xrotation 
	JOINT LHipJoint
	{
		OFFSET 0.000000 0.000000 0.000000
		CHANNELS 3 Zrotation Yrotation Xrotation
		JOINT LeftUpLeg
		{
			OFFSET 1.800000 -1.400000 0.085000
			CHANNELS 3 Zrotation Yrotation Xrotation
			JOINT LeftLeg
			{
				OFFSET 2.215000 -6.000000 0.000000
				CHANNELS 3 Zrotation Yrotation Xrotation
				JOINT LeftFoot
				{
					OFFSET 2.500000 -6.900000 0.000000
					CHANNELS 3 Zrotation Yrotation Xrotation
					JOINT LeftToeBase
					{
						OFFSET 0.200000 -0.500000 1.950000
						CHANNELS 3 Zrotation Yrotation Xrotation
						End Site
						{
							OFFSET 0.000000 0.000000 0.000000
						}
					}
				}
			}
		}
	}
	JOINT RHipJoint
	{
		OFFSET 0.000000 0.000000 0.000000
		CHANNELS 3 Zrotation Yrotation Xrotation
		JOINT RightUpLeg
		{
			OFFSET -1.800000 -1.400000 0.085000
			CHANNELS 3 Zrotation Yrotation Xrotation
			JOINT RightLeg
			{
				OFFSET -2.215000 -6.000000 0.000000
				CHANNELS 3 Zrotation Yrotation Xrotation
				JOINT RightFoot
				{
					OFFSET -2.500000 -6.900000 0.000000
					CHANNELS 3 Zrotation Yrotation Xrotation
					JOINT RightToeBase
					{
						OFFSET -0.200000 -0.500000 1.950000
						CHANNELS 3 Zrotation Yrotation Xrotation
						End Site
						{
							OFFSET 0.000000 0.000000 0.000000
						}
					}
				}
			}
		}
	}
	JOINT LowerBack
	{
		OFFSET 0.000000 0.000000 0.000000
		CHANNELS 3 Zrotation Yrotation Xrotation
		JOINT Spine
		{
			OFFSET -0.087000 1.940000 -0.288900
			CHANNELS 3 Zrotation Yrotation Xrotation
			JOINT Spine1
			{
				OFFSET 0.000000 1.950000 0.060000
				CHANNELS 3 Zrotation Yrotation Xrotation
				JOINT Neck
				{
					OFFSET 0.000000 0.000000 0.000000
					CHANNELS 3 Zrotation Yrotation Xrotation
					JOINT Neck1
					{
						OFFSET 0.000000 1.600000 0.340000
						CHANNELS 3 Zrotation Yrotation Xrotation
						JOINT Head
						{
							OFFSET 0.000000 1.667000 -0.240000
							CHANNELS 3 Zrotation Yrotation Xrotation
							End Site
							{
								OFFSET 0.000000 0.000000 0.000000
							}
						}
					}
				}
				JOINT LeftShoulder
				{
					OFFSET 0.000000 0.000000 0.000000
					CHANNELS 3 Zrotation Yrotation Xrotation
					JOINT LeftArm
					{
						OFFSET 2.700000 1.550000 -0.730000
						CHANNELS 3 Zrotation Yrotation Xrotation
						JOINT LeftForeArm
						{
							OFFSET 5.450000 0.000000 0.000000
							CHANNELS 3 Zrotation Yrotation Xrotation
							JOINT LeftHand
							{
								OFFSET 3.450000 0.000000 0.000000
								CHANNELS 3 Zrotation Yrotation Xrotation
								JOINT LeftHandIndex1
								{
									OFFSET 0.750000 0.000000 0.000000
									CHANNELS 3 Zrotation Yrotation Xrotation
									End Site
									{
										OFFSET 0.000000 0.000000 0.000000
									}
								}
							}
						}
					}
				}
				JOINT RightShoulder
				{
					OFFSET 0.000000 0.000000 0.000000
					CHANNELS 3 Zrotation Yrotation Xrotation
					JOINT RightArm
					{
						OFFSET -2.700000 1.550000 -0.730000
						CHANNELS 3 Zrotation Yrotation Xrotation
						JOINT RightForeArm
						{
							OFFSET -5.450000 0.000000 0.000000
							CHANNELS 3 Zrotation Yrotation Xrotation
							JOINT RightHand
							{
								OFFSET -3.450000 0.000000 0.000000
								CHANNELS 3 Zrotation Yrotation Xrotation
								JOINT RightHandIndex1
								{
									OFFSET -0.750000 0.000000 0.000000
									CHANNELS 3 Zrotation Yrotation Xrotation
									End Site
									{
										OFFSET 0.000000 0.000000 0.000000
									}
								}
							}
						}
					}
				}
			}
		}
	}
}
MOTION
Frames: 6
Frame Time: 0.016667
-0.319690 17.482730 -10.048910 -15.819291 11.008337 -0.549401 -15.940430 13.322417 2.931967 4.377731 -1.557991 -7.581690 5.348161 2.021352 -1.009217 0.057691 2.866098 3.574465 -0.117980 -0.280380 0.113220 17.606208 -9.781135 4.440187 24.347841 -0.606034 -4.461852 -5.249141 -1.869381 0.796321 -0.194970 -2.780595 3.387954 -0.227200 -0.090460 0.070550 -1.569271 -2.395981 -8.754960 2.252513 2.028763 9.488671 16.194641 4.799907 -7.094085 4.632214 5.363433 -16.574321 9.616104 -9.114396 42.775437 -6.218940 -3.253730 4.252720 13.063949 -0.262824 7.160349 19.061361 30.435453 1.343519 -4.298951 13.210978 -3.043739 -4.546810 1.313078 0.132320 -0.020160 0.036940 -0.113310 -21.809984 3.982199 5.864971 -44.595033 -16.206838 12.122469 -4.384753 27.111085 1.311998 2.774821 -2.240292 -0.013090 -0.114880 0.048610 -0.094560 
-0.283270 17.487830 -10.055880 -16.729711 12.988480 -0.912193 -15.973505 13.487282 2.933994 4.789354 -1.528865 -8.780721 5.180784 2.073004 -0.070618 0.055884 2.820154 3.591308 -0.146970 -0.321330 0.085220 17.540533 -9.684458 4.565713 25.417039 -0.610342 -4.382348 -6.288754 -1.713489 -0.323147 -0.174211 -2.780093 3.391115 -0.251330 -0.078020 0.080340 -1.471433 -2.728955 -8.934701 4.270036 2.746118 11.029389 15.502113 7.117273 -8.842124 4.749297 5.139756 -16.774276 8.837384 -10.454419 42.046683 -7.190250 -4.999370 4.986550 12.785268 0.728268 7.162601 16.955249 28.271793 1.362069 -3.138346 6.640336 -2.357274 -4.397705 1.439218 0.105960 -0.009750 0.013830 -0.117610 -22.055989 4.352410 5.445774 -45.441211 -17.139671 11.215948 -3.315838 22.221517 1.396620 2.643284 -2.281063 -0.005310 -0.128420 0.065950 -0.080850 
-0.243520 17.469810 -10.079180 -15.924925 15.038556 -0.906847 -15.893677 13.627108 3.010990 2.665545 -1.359717 -10.077615 5.326933 2.061513 1.300453 0.063421 2.601462 3.655672 -0.188640 -0.353730 0.019080 17.564566 -9.828391 4.515436 23.816537 -0.168442 -5.741971 -6.402790 -1.618510 0.338410 -0.126428 -2.630765 3.468683 -0.297200 -0.068740 0.065170 -1.696166 -2.779183 -8.965215 6.227973 2.827485 13.896923 12.863614 8.740461 -11.619184 3.643399 5.235351 -17.803371 9.608976 -11.156129 42.370390 -4.704630 -7.103360 5.404790 14.149529 0.381125 7.856014 12.830977 28.117978 0.804140 0.129564 3.006474 -1.475840 -4.413176 1.515653 0.107740 -0.033320 0.013620 -0.113970 -22.472134 5.584771 5.419823 -41.537360 -14.512933 5.991114 -8.035050 7.694378 0.578397 2.347341 -1.854503 0.010490 -0.129520 0.083850 -0.050800 
-0.250040 17.479450 -10.176730 -14.899169 18.424666 -4.849930 -15.698392 13.509645 2.916836 1.017219 -0.773414 -8.168534 5.628413 2.260514 3.851717 0.063655 2.526932 3.626093 -0.122670 -0.301120 0.137470 17.733802 -10.291664 4.328983 19.982192 -0.559731 -4.688412 -3.717039 -2.257677 2.679511 -0.230272 -2.663434 3.428789 -0.319530 -0.222350 0.040320 -2.357830 -1.922967 -8.733812 8.193002 3.454175 15.556724 9.610575 7.673413 -5.337438 2.801177 6.590732 -19.088183 13.466653 -14.278551 48.657855 -2.588240 -9.527630 4.476780 9.557370 -6.052271 10.054466 12.508444 32.046982 0.817876 -0.832865 9.588863 -1.763459 -4.418672 1.527052 0.239850 -0.166810 0.150370 -0.145130 -16.425072 8.331026 8.145158 -39.975295 -18.363935 4.371642 -15.707467 -6.001998 0.832456 2.572381 -1.296085 0.046790 -0.134040 0.030700 -0.090620 
-0.246910 17.470500 -10.203930 -14.824165 18.253131 -5.847688 -15.562435 13.400324 2.925825 0.662816 -0.641182 -7.440877 4.716358 2.456362 4.332458 0.010971 2.550782 3.591126 -0.109310 -0.299950 0.180400 17.855179 -10.524846 4.213420 18.186482 -0.398111 -5.153562 -2.624167 -2.530438 4.867879 -0.243258 -2.653485 3.419650 -0.317130 -0.269990 0.025850 -2.764945 -1.447891 -8.676576 10.450865 3.521639 16.030672 7.140644 7.574782 -2.986299 2.799473 7.016529 -19.018158 14.995038 -14.541485 50.331201 -1.322990 -9.003560 3.308490 7.752962 -7.518238 10.566077 11.167515 34.976539 0.814678 -0.868415 10.065336 -1.815889 -4.331875 1.625482 0.316810 -0.204170 0.186980 -0.176610 -14.677737 8.448646 8.149204 -38.849256 -21.441964 4.434458 -10.697195 -8.683277 0.113485 2.478636 -1.253010 0.024900 -0.126480 0.037060 -0.135280 
-0.197270 17.441860 -10.227270 -16.490823 18.894812 -5.616331 -15.484999 13.381441 2.875794 1.494368 -0.744331 -9.026332 3.869960 2.541164 4.880879 0.019901 2.498213 3.625082 -0.152230 -0.336960 0.170730 17.911404 -10.648088 4.155616 17.457835 0.260764 -7.325383 -0.755832 -2.776912 6.759673 -0.180881 -2.593763 3.443384 -0.347880 -0.229770 0.080560 -2.995800 -1.220297 -8.625230 13.244817 2.862731 15.810037 6.553727 7.277218 -2.960381 3.072675 8.629983 -18.888530 18.665574 -15.803087 44.979809 -3.830860 -7.299700 5.035900 6.462637 -7.458403 10.323050 7.831074 37.280508 0.154861 -1.016146 9.131048 -1.794640 -4.380239 1.725424 0.244030 -0.127590 0.170080 -0.175500 -14.605408 6.861474 8.301245 -34.723261 -24.898987 4.304452 -5.222132 -6.916072 -0.553345 2.387075 -1.403873 0.047470 -0.163700 0.043350 -0.120850 
